<svg xmlns="http://www.w3.org/2000/svg" viewBox="0 0 512 512" width="1024" height="1024">
  <defs>
    <linearGradient id="coralD" x1="0" y1="0" x2="1" y2="1">
      <stop offset="0" stop-color="#FFA082"/>
      <stop offset="0.55" stop-color="#FF6B3D"/>
      <stop offset="1" stop-color="#F04E1D"/>
    </linearGradient>
  </defs>

  <!-- 奶油圆角底 -->
  <rect x="16" y="16" width="480" height="480" rx="108" fill="#FFF6EE" stroke="#FFE0CF" stroke-width="4"/>

  <!-- 猫耳（外） -->
  <path d="M 126 212 L 154 92 Q 157 80 169 83 L 252 164 Z" fill="url(#coralD)"/>
  <path d="M 386 212 L 358 92 Q 355 80 343 83 L 260 164 Z" fill="url(#coralD)"/>

  <!-- 猫脸 -->
  <circle cx="256" cy="305" r="150" fill="url(#coralD)"/>

  <!-- 猫耳（内） -->
  <path d="M 152 176 L 166 116 L 224 160 Z" fill="#FFF6EE"/>
  <path d="M 360 176 L 346 116 L 288 160 Z" fill="#FFF6EE"/>

  <!-- 星光眼睛（星河点睛） -->
  <path d="M 196 256 Q 203.8 274.2 222 282 Q 203.8 289.8 196 308 Q 188.2 289.8 170 282 Q 188.2 274.2 196 256 Z" fill="#FFB020"/>
  <path d="M 316 256 Q 323.8 274.2 342 282 Q 323.8 289.8 316 308 Q 308.2 289.8 290 282 Q 308.2 274.2 316 256 Z" fill="#FFB020"/>

  <!-- 鼻子 -->
  <path d="M 256 320 L 240 344 Q 256 354 272 344 Z" fill="#F04E1D"/>

  <!-- 嘴巴 -->
  <path d="M 256 354 Q 240 376 218 366" fill="none" stroke="#F04E1D" stroke-width="8" stroke-linecap="round"/>
  <path d="M 256 354 Q 272 376 294 366" fill="none" stroke="#F04E1D" stroke-width="8" stroke-linecap="round"/>

  <!-- 胡须 -->
  <g stroke="#FFB020" stroke-width="6" stroke-linecap="round" opacity="0.75">
    <line x1="152" y1="296" x2="72" y2="278"/>
    <line x1="152" y1="320" x2="66" y2="324"/>
    <line x1="360" y1="296" x2="440" y2="278"/>
    <line x1="360" y1="320" x2="446" y2="324"/>
  </g>
</svg>
